<?xml version="1.0" encoding="UTF-8" standalone="no"?>
<!-- Generator: Adobe Illustrator 19.0.0, SVG Export Plug-In . SVG Version: 6.00 Build 0)  -->

<svg
   version="1.1"
   id="Capa_1"
   x="0px"
   y="0px"
   viewBox="0 0 60 60"
   style="enable-background:new 0 0 60 60;"
   xml:space="preserve"
   sodipodi:docname="controls.svg"
   inkscape:version="1.2.1 (9c6d41e410, 2022-07-14)"
   xmlns:inkscape="http://www.inkscape.org/namespaces/inkscape"
   xmlns:sodipodi="http://sodipodi.sourceforge.net/DTD/sodipodi-0.dtd"
   xmlns="http://www.w3.org/2000/svg"
   xmlns:svg="http://www.w3.org/2000/svg"><defs
   id="defs37"><filter
     style="color-interpolation-filters:sRGB;"
     inkscape:label="Invert"
     id="filter342"
     x="0"
     y="0"
     width="1"
     height="1"><feColorMatrix
       type="hueRotate"
       values="180"
       result="color1"
       id="feColorMatrix338" /><feColorMatrix
       values="-1 0 0 0 1 0 -1 0 0 1 0 0 -1 0 1 -0.21 -0.72 -0.07 2 0 "
       result="fbSourceGraphic"
       id="feColorMatrix340" /><feColorMatrix
       result="fbSourceGraphicAlpha"
       in="fbSourceGraphic"
       values="0 0 0 -1 0 0 0 0 -1 0 0 0 0 -1 0 0 0 0 1 0"
       id="feColorMatrix424" /><feColorMatrix
       id="feColorMatrix426"
       type="hueRotate"
       values="180"
       result="color1"
       in="fbSourceGraphic" /><feColorMatrix
       id="feColorMatrix428"
       values="-1 0 0 0 1 0 -1 0 0 1 0 0 -1 0 1 -0.21 -0.72 -0.07 2 0 "
       result="color2" /></filter></defs><sodipodi:namedview
   id="namedview35"
   pagecolor="#ffffff"
   bordercolor="#000000"
   borderopacity="0.25"
   inkscape:showpageshadow="2"
   inkscape:pageopacity="0.0"
   inkscape:pagecheckerboard="0"
   inkscape:deskcolor="#d1d1d1"
   showgrid="false"
   inkscape:zoom="6.975"
   inkscape:cx="8.5304659"
   inkscape:cy="25.806452"
   inkscape:window-width="1920"
   inkscape:window-height="1017"
   inkscape:window-x="1912"
   inkscape:window-y="399"
   inkscape:window-maximized="1"
   inkscape:current-layer="Capa_1" />
<path
   id="path2"
   style="display:inline;filter:url(#filter342)"
   d="M -2.1503906,-1.4335938 V 62.652344 H 64.085938 V -1.4335938 Z M 1,0 h 58 c 0.552999,0 1,0.44800055 1,1 v 58 c 0,0.551999 -0.447001,1 -1,1 H 1 C 0.44700055,60 0,59.551999 0,59 V 1 C 0,0.44800055 0.44700055,0 1,0 Z m 13,5 c -3.858996,0 -7,3.1400039 -7,7 0,3.859996 3.141004,7 7,7 3.518996,0 6.431922,-2.613003 6.919922,-6 H 52 c 0.552999,0 1,-0.448001 1,-1 0,-0.551999 -0.447001,-1 -1,-1 H 20.919922 C 20.431922,7.6130034 17.518996,5 14,5 Z m 15,18 c -3.518996,0 -6.431922,2.613003 -6.919922,6 H 8 c -0.5529994,0 -1,0.448001 -1,1 0,0.551999 0.4470006,1 1,1 h 14.080078 c 0.488,3.386997 3.400926,6 6.919922,6 3.518996,0 6.431922,-2.613003 6.919922,-6 H 52 c 0.552999,0 1,-0.448001 1,-1 0,-0.551999 -0.447001,-1 -1,-1 H 35.919922 C 35.431922,25.613003 32.518996,23 29,23 Z m 17,18 c -3.518996,0 -6.431922,2.613003 -6.919922,6 H 8 c -0.5529994,0 -1,0.448001 -1,1 0,0.551999 0.4470006,1 1,1 h 31.080078 c 0.488,3.386997 3.400926,6 6.919922,6 3.858996,0 7,-3.140004 7,-7 0,-3.859996 -3.141004,-7 -7,-7 z" />















<path
   style="fill:#000000;stroke-width:0.143369"
   d="M 12.274169,18.769814 C 8.8703219,17.854405 6.5697466,14.445097 7.0906031,11.088096 7.4321285,8.8869117 8.550508,7.1544748 10.347139,6.0435274 c 2.163022,-1.3375062 5.222316,-1.3214146 7.341741,0.038617 1.499969,0.9625273 2.852482,2.8491414 3.102207,4.3272546 l 0.09433,0.558343 h 15.666988 c 15.632782,0 15.667814,6.45e-4 16.044746,0.297144 0.462179,0.36355 0.503567,1.010739 0.09102,1.423286 -0.283259,0.283259 -0.477897,0.286738 -16.039024,0.286738 H 20.896862 l -0.08692,0.537635 c -0.04781,0.295699 -0.309281,1.000538 -0.58105,1.56631 -1.403966,2.922802 -4.855694,4.524391 -7.954718,3.690959 z"
   id="path509" /><path
   style="fill:#000000;stroke-width:0.143369"
   d="M 28.028674,36.904139 C 26.370946,36.66478 25.111627,35.993748 23.883855,34.69556 23.102335,33.869218 22.347946,32.47058 22.201816,31.577061 l -0.08793,-0.537634 -7.114293,-0.0021 c -7.6837791,-0.0023 -7.6912668,-0.003 -7.9442434,-0.765432 -0.1084399,-0.32682 -0.078774,-0.485449 0.1474663,-0.788531 l 0.2832148,-0.379407 7.2870773,-0.07169 7.287077,-0.07168 0.175835,-0.689416 c 0.779932,-3.057966 3.645751,-5.260404 6.844853,-5.260404 2.939123,0 5.851005,2.236129 6.622286,5.085467 l 0.253373,0.936038 h 8.222449 c 8.03129,0 8.229115,0.0067 8.509187,0.286738 0.412548,0.412548 0.37116,1.059736 -0.09102,1.423286 -0.372088,0.292684 -0.499878,0.297145 -8.513445,0.297145 h -8.135689 l -0.166562,0.661477 c -0.85578,3.398606 -4.289709,5.703268 -7.752783,5.203235 z"
   id="path511" /><path
   style="fill:#000000;stroke-width:0.143369"
   d="m 44.267319,54.761062 c -2.573396,-0.693047 -4.560857,-2.791481 -5.120323,-5.406223 l -0.08436,-0.394266 H 23.305166 7.5476932 l -0.305248,-0.38806 C 7.0291258,48.301322 6.9640676,48.074642 7.0264201,47.819825 7.2340251,46.971404 6.1188922,47.028484 23.289189,46.987391 l 15.75211,-0.0377 0.298606,-0.983095 c 0.580187,-1.910136 1.974092,-3.489255 3.814217,-4.321025 1.037438,-0.468941 1.655778,-0.591199 2.969078,-0.587049 5.150701,0.01628 8.471352,5.670334 6.023925,10.256909 -0.517972,0.970701 -1.942857,2.39319 -2.865595,2.860777 -1.552764,0.786845 -3.444759,1.007526 -5.014211,0.584854 z"
   id="path513" /></svg>
