<?xml version="1.0" encoding="UTF-8" standalone="no"?>
<!-- Created with Inkscape (http://www.inkscape.org/) -->

<svg
   width="47.044422mm"
   height="79.048424mm"
   viewBox="0 0 47.044422 79.048424"
   version="1.1"
   id="svg5"
   xmlns:xlink="http://www.w3.org/1999/xlink"
   xmlns="http://www.w3.org/2000/svg"
   xmlns:svg="http://www.w3.org/2000/svg">
  <defs
     id="defs2">
    <linearGradient
       id="linearGradient4031">
      <stop
         style="stop-color:#1059ee;stop-opacity:1;"
         offset="0"
         id="stop4027" />
      <stop
         style="stop-color:#00f5b4;stop-opacity:1;"
         offset="0.80697054"
         id="stop4029" />
    </linearGradient>
    <linearGradient
       xlink:href="#linearGradient4031"
       id="linearGradient4033"
       x1="34.036564"
       y1="15.545085"
       x2="79.576523"
       y2="61.586861"
       gradientUnits="userSpaceOnUse"
       spreadMethod="pad" />
    <filter
       height="1.0896858"
       y="-0.044842906"
       width="1.1604904"
       x="-0.080245204"
       style="color-interpolation-filters:sRGB"
       id="filter6346">
      <feGaussianBlur
         stdDeviation="1.3554216867469879"
         result="result8"
         id="feGaussianBlur6328" />
      <feTurbulence
         seed="27"
         result="result7"
         type="fractalNoise"
         numOctaves="3"
         baseFrequency="0.025"
         id="feTurbulence6330" />
      <feComposite
         in2="result8"
         result="result6"
         operator="over"
         in="result7"
         id="feComposite6332" />
      <feColorMatrix
         result="result9"
         values="1 0 0 0 0 0 1 0 0 0 0 0 1 0 0 0 0 0 6 -4 "
         id="feColorMatrix6334" />
      <feDisplacementMap
         in="result7"
         in2="result9"
         xChannelSelector="A"
         yChannelSelector="A"
         scale="3.3195021"
         result="result4"
         id="feDisplacementMap6336" />
      <feComposite
         in2="result4"
         result="result2"
         operator="in"
         in="result8"
         id="feComposite6338" />
      <feComposite
         result="fbSourceGraphic"
         in="result2"
         operator="in"
         in2="result9"
         id="feComposite6340" />
      <feComposite
         operator="arithmetic"
         k2="1"
         k1="-0.20804438"
         in="fbSourceGraphic"
         in2="fbSourceGraphic"
         result="result91"
         id="feComposite6342"
         k3="0"
         k4="0" />
      <feBlend
         in="fbSourceGraphic"
         mode="multiply"
         in2="result91"
         id="feBlend6344" />
    </filter>
  </defs>
  <g
     id="layer1"
     transform="translate(-26.477788,-10.475788)">
    <path
       d="M 66.115305,84.629028 H 32.456072 A 3.4395833,3.4395833 45 0 1 29.016489,81.189445 V 15.526212 a 3.4395833,3.4395833 135 0 1 3.439583,-3.439583 h 33.659233 a 3.4395833,3.4395833 45 0 1 3.439583,3.439583 v 1.147234 a 3.4395833,3.4395833 135 0 1 -3.439583,3.439583 H 41.600072 a 3.4395833,3.4395833 135 0 0 -3.439583,3.439583 v 15.777634 a 3.4395833,3.4395833 45 0 0 3.439583,3.439583 h 22.686433 a 3.4395833,3.4395833 45 0 1 3.439583,3.439583 v 1.045634 a 3.4395833,3.4395833 135 0 1 -3.439583,3.439583 H 41.600072 a 3.4395833,3.4395833 135 0 0 -3.439583,3.439583 v 19.028833 a 3.4395833,3.4395833 45 0 0 3.439583,3.439583 h 24.515233 a 3.4395833,3.4395833 45 0 1 3.439583,3.439583 v 1.147234 a 3.4395833,3.4395833 135 0 1 -3.439583,3.439583 z"
       id="path1068"
       style="font-size:101.6px;display:inline;fill:url(#linearGradient4033);fill-opacity:1;stroke:none;stroke-width:0.265;stroke-dasharray:none;filter:url(#filter6346)"
       transform="translate(0.7143115,1.6421715)" />
  </g>
</svg>
